name C:/MyDriveSym/Projects/mobilecap/Data\Session20210823_0002\mocap\ForceDataProcessed\walking3_forces.mot
datacolumns 19
datarows 27
range 0.72450000 0.73750000
endheader 
time	R_ground_force_vx	R_ground_force_vy	R_ground_force_vz	R_ground_force_px	R_ground_force_py	R_ground_force_pz	R_ground_torque_x	R_ground_torque_y	R_ground_torque_z	L_ground_force_vx	L_ground_force_vy	L_ground_force_vz	L_ground_force_px	L_ground_force_py	L_ground_force_pz	L_ground_torque_x	L_ground_torque_y	L_ground_torque_z	
          0.72450000	         25.72072300	         87.98978900	          1.36294200	          0.37386000	          0.00600000	         -0.13253400	          0.00000000	         -0.15595300	          0.00000000	        -81.41008900	        559.38673800	         26.02006500	          0.83452900	          0.00600000	         -0.27106600	          0.00000000	          0.86454600	          0.00000000	
          0.72500000	         25.39162000	         86.62355300	          1.37920600	          0.37419900	          0.00600000	         -0.13252100	          0.00000000	         -0.15449700	          0.00000000	        -81.50931400	        560.67035800	         26.13230100	          0.83466900	          0.00600000	         -0.27109200	          0.00000000	          0.85949800	          0.00000000	
          0.72550000	         25.06421300	         85.26782800	          1.39497400	          0.37454400	          0.00600000	         -0.13250800	          0.00000000	         -0.15305200	          0.00000000	        -81.60589500	        561.94746400	         26.24346300	          0.83480800	          0.00600000	         -0.27111900	          0.00000000	          0.85443900	          0.00000000	
          0.72600000	         24.73852500	         83.92262700	          1.41025500	          0.37489500	          0.00600000	         -0.13249500	          0.00000000	         -0.15161800	          0.00000000	        -81.69983300	        563.21799400	         26.35354800	          0.83494700	          0.00600000	         -0.27114500	          0.00000000	          0.84936700	          0.00000000	
          0.72650000	         24.41457600	         82.58796200	          1.42505600	          0.37525100	          0.00600000	         -0.13248000	          0.00000000	         -0.15019400	          0.00000000	        -81.79112800	        564.48188200	         26.46255100	          0.83508600	          0.00600000	         -0.27117000	          0.00000000	          0.84428600	          0.00000000	
          0.72700000	         24.09238600	         81.26384400	          1.43938400	          0.37561200	          0.00600000	         -0.13246500	          0.00000000	         -0.14878200	          0.00000000	        -81.87978100	        565.73906500	         26.57047100	          0.83522400	          0.00600000	         -0.27119600	          0.00000000	          0.83919400	          0.00000000	
          0.72750000	         23.77197700	         79.95028200	          1.45324700	          0.37598000	          0.00600000	         -0.13245000	          0.00000000	         -0.14738200	          0.00000000	        -81.96579300	        566.98947900	         26.67730400	          0.83536100	          0.00600000	         -0.27122200	          0.00000000	          0.83409300	          0.00000000	
          0.72800000	         23.45336600	         78.64728300	          1.46665200	          0.37635400	          0.00600000	         -0.13243400	          0.00000000	         -0.14599300	          0.00000000	        -82.04916400	        568.23306100	         26.78304800	          0.83549800	          0.00600000	         -0.27124700	          0.00000000	          0.82898500	          0.00000000	
          0.72850000	         23.13657400	         77.35485400	          1.47960600	          0.37673500	          0.00600000	         -0.13241700	          0.00000000	         -0.14461600	          0.00000000	        -82.12989700	        569.46974700	         26.88770100	          0.83563400	          0.00600000	         -0.27127300	          0.00000000	          0.82386900	          0.00000000	
          0.72900000	         22.82161800	         76.07300100	          1.49211600	          0.37712200	          0.00600000	         -0.13239900	          0.00000000	         -0.14325200	          0.00000000	        -82.20799200	        570.69947500	         26.99125900	          0.83577000	          0.00600000	         -0.27129800	          0.00000000	          0.81874600	          0.00000000	
          0.72950000	         22.50851600	         74.80172700	          1.50419100	          0.37751600	          0.00600000	         -0.13238100	          0.00000000	         -0.14190100	          0.00000000	        -82.28345100	        571.92218100	         27.09372300	          0.83590500	          0.00600000	         -0.27132300	          0.00000000	          0.81361800	          0.00000000	
          0.73000000	         22.19728600	         73.54103600	          1.51583500	          0.37791700	          0.00600000	         -0.13236200	          0.00000000	         -0.14056300	          0.00000000	        -82.35627700	        573.13780300	         27.19508800	          0.83603900	          0.00600000	         -0.27134800	          0.00000000	          0.80848600	          0.00000000	
          0.73050000	         21.88794400	         72.29092900	          1.52705700	          0.37832500	          0.00600000	         -0.13234200	          0.00000000	         -0.13923900	          0.00000000	        -82.42647200	        574.34627900	         27.29535500	          0.83617300	          0.00600000	         -0.27137300	          0.00000000	          0.80335000	          0.00000000	
          0.73100000	         21.58050700	         71.05140600	          1.53786400	          0.37874100	          0.00600000	         -0.13232100	          0.00000000	         -0.13792800	          0.00000000	        -82.49403800	        575.54754600	         27.39452300	          0.83630600	          0.00600000	         -0.27139800	          0.00000000	          0.79821000	          0.00000000	
          0.73150000	         21.27499000	         69.82246700	          1.54826100	          0.37916500	          0.00600000	         -0.13230000	          0.00000000	         -0.13663200	          0.00000000	        -82.55897800	        576.74154200	         27.49258800	          0.83643900	          0.00600000	         -0.27142200	          0.00000000	          0.79306900	          0.00000000	
          0.73200000	         20.97140900	         68.60411000	          1.55825600	          0.37959700	          0.00600000	         -0.13227800	          0.00000000	         -0.13535100	          0.00000000	        -82.62129500	        577.92820600	         27.58955200	          0.83657200	          0.00600000	         -0.27144700	          0.00000000	          0.78792700	          0.00000000	
          0.73250000	         20.66977800	         67.39633100	          1.56785600	          0.38003800	          0.00600000	         -0.13225500	          0.00000000	         -0.13408400	          0.00000000	        -82.68099300	        579.10747800	         27.68541400	          0.83670400	          0.00600000	         -0.27147100	          0.00000000	          0.78278400	          0.00000000	
          0.73300000	         20.37011000	         66.19912600	          1.57706600	          0.38048700	          0.00600000	         -0.13223100	          0.00000000	         -0.13283300	          0.00000000	        -82.73807500	        580.27929500	         27.78017200	          0.83683500	          0.00600000	         -0.27149500	          0.00000000	          0.77764200	          0.00000000	
          0.73350000	         20.07242100	         65.01248900	          1.58589300	          0.38094500	          0.00600000	         -0.13220600	          0.00000000	         -0.13159900	          0.00000000	        -82.79254400	        581.44359800	         27.87382700	          0.83696600	          0.00600000	         -0.27152000	          0.00000000	          0.77250100	          0.00000000	
          0.73400000	         19.77672300	         63.83641300	          1.59434300	          0.38141300	          0.00600000	         -0.13218000	          0.00000000	         -0.13038000	          0.00000000	        -82.84440500	        582.60032600	         27.96637800	          0.83709600	          0.00600000	         -0.27154400	          0.00000000	          0.76736200	          0.00000000	
          0.73450000	         19.48302700	         62.67089100	          1.60242300	          0.38189000	          0.00600000	         -0.13215300	          0.00000000	         -0.12917900	          0.00000000	        -82.89366200	        583.74942000	         28.05782600	          0.83722600	          0.00600000	         -0.27156800	          0.00000000	          0.76222700	          0.00000000	
          0.73500000	         19.19134800	         61.51591300	          1.61013900	          0.38237700	          0.00600000	         -0.13212500	          0.00000000	         -0.12799500	          0.00000000	        -82.94032000	        584.89082000	         28.14817100	          0.83735500	          0.00600000	         -0.27159100	          0.00000000	          0.75709500	          0.00000000	
          0.73550000	         18.90169500	         60.37146900	          1.61749700	          0.38287500	          0.00600000	         -0.13209600	          0.00000000	         -0.12683000	          0.00000000	        -82.98438200	        586.02446700	         28.23741400	          0.83748400	          0.00600000	         -0.27161500	          0.00000000	          0.75196800	          0.00000000	
          0.73600000	         18.61408000	         59.23754700	          1.62450200	          0.38338400	          0.00600000	         -0.13206500	          0.00000000	         -0.12568300	          0.00000000	        -83.02585500	        587.15030300	         28.32555400	          0.83761200	          0.00600000	         -0.27163900	          0.00000000	          0.74684700	          0.00000000	
          0.73650000	         18.32851400	         58.11413500	          1.63116100	          0.38390400	          0.00600000	         -0.13203400	          0.00000000	         -0.12455500	          0.00000000	        -83.06474300	        588.26826900	         28.41259400	          0.83774000	          0.00600000	         -0.27166200	          0.00000000	          0.74173200	          0.00000000	
          0.73700000	         18.04500600	         57.00121900	          1.63747900	          0.38443600	          0.00600000	         -0.13200100	          0.00000000	         -0.12344700	          0.00000000	        -83.10105100	        589.37830900	         28.49853300	          0.83786700	          0.00600000	         -0.27168500	          0.00000000	          0.73662500	          0.00000000	
          0.73750000	         17.76356600	         55.89878400	          1.64346300	          0.38498000	          0.00600000	         -0.13196800	          0.00000000	         -0.12235900	          0.00000000	        -83.13478600	        590.48036400	         28.58337400	          0.83799400	          0.00600000	         -0.27170900	          0.00000000	          0.73152600	          0.00000000	
